<svg width="31" height="26" viewBox="0 0 31 26" fill="none" xmlns="http://www.w3.org/2000/svg">
<path d="M23.4084 12.4026C23.4084 12.5312 21.6017 12.6517 19.0225 12.7529C18.567 12.4945 18.2213 12.2348 17.9683 12.0111C21.0962 12.1216 23.4084 12.2581 23.4084 12.4026Z" fill="#747F8A"/>
<path d="M21.5556 8.04818C21.5556 8.1554 20.0412 8.25596 17.8762 8.34253C18.1866 8.16139 18.5062 7.97892 18.8418 7.79578C20.4774 7.87104 21.5556 7.95828 21.5556 8.04818Z" fill="#747F8A"/>
<path d="M5.42397 17.416C4.42172 17.428 3.54266 17.4326 2.85607 17.4326C1.86779 17.4326 1.06732 17.1283 1.06732 16.7507C1.06732 16.3751 1.86779 16.0707 2.85607 16.0707C3.73112 16.0707 4.91652 16.0801 6.27639 16.0974C5.75029 16.8566 5.50056 17.3127 5.47725 17.3414C5.46193 17.3634 5.44262 17.3893 5.42397 17.416Z" fill="#747F8A"/>
<path d="M5.96385 18.3282C6.29416 18.7271 6.61115 19.0627 7.03536 19.4297C7.03536 19.4297 7.19519 19.6581 7.68067 19.4623C8.1748 19.2612 8.59369 18.9875 9.06585 18.3542C10.4444 18.3775 11.9061 18.4081 13.3452 18.4407C13.4638 18.6132 13.7042 18.9702 14.0005 19.4104C9.98885 19.5142 5.63487 19.5762 3.4046 19.5762C2.4756 19.5762 1.72174 19.2878 1.72174 18.9349C1.72174 18.5799 2.4756 18.2936 3.4046 18.2936C4.08387 18.2936 4.95893 18.2982 5.96052 18.3095C5.95985 18.3189 5.96385 18.3282 5.96385 18.3282Z" fill="#747F8A"/>
<path d="M4.41195 21.6736C3.5875 21.6736 2.91956 21.4199 2.91956 21.1069C2.91956 20.7932 3.5875 20.5388 4.41195 20.5388C6.59294 20.5388 11.0641 20.6054 14.8934 20.7139C15.0778 20.9783 15.2623 21.2414 15.4374 21.4831C11.495 21.599 6.69616 21.6736 4.41195 21.6736Z" fill="#747F8A"/>
<path d="M17.1298 23.4928C13.9139 23.634 8.38452 23.7285 6.08699 23.7285C5.44035 23.7285 4.91492 23.5267 4.91492 23.2823C4.91492 23.0359 5.44035 22.8355 6.08699 22.8355C8.28463 22.8355 13.4457 22.922 16.7029 23.0519C16.8501 23.2097 16.9939 23.3582 17.1298 23.4928Z" fill="#747F8A"/>
<path d="M8.73984 24.699C10.6371 24.699 16.4129 24.8422 16.4129 25.0153C16.4129 25.1912 10.6365 25.333 8.73984 25.333C8.37024 25.333 8.07123 25.1912 8.07123 25.0153C8.07123 24.8422 8.37024 24.699 8.73984 24.699Z" fill="#747F8A"/>
<path d="M8.76087 13.0205C6.37277 13.0611 4.23307 13.0837 2.85588 13.0837C1.86828 13.0837 1.06714 12.7794 1.06714 12.4025C1.06714 12.0262 1.86828 11.7205 2.85588 11.7205C4.4555 11.7205 7.084 11.7512 9.93361 11.8051C9.51006 12.224 9.11848 12.6316 8.76087 13.0205Z" fill="#747F8A"/>
<path d="M20.4742 9.97459C21.8733 10.0505 22.7537 10.1338 22.7537 10.2203C22.7537 10.3156 21.6882 10.4068 20.0393 10.488C20.3916 10.223 20.4688 9.9919 20.4742 9.97459Z" fill="#747F8A"/>
<path d="M3.4049 10.8606C2.47523 10.8606 1.72137 10.5742 1.72137 10.22C1.72137 9.86633 2.47523 9.57864 3.4049 9.57864C5.31152 9.57864 8.7698 9.62526 12.2387 9.70184C11.8132 10.0608 11.4096 10.4157 11.0287 10.764C7.98398 10.8253 5.08975 10.8606 3.4049 10.8606Z" fill="#747F8A"/>
<path d="M13.7724 8.47055C10.2255 8.56045 6.38299 8.61572 4.41177 8.61572C3.58733 8.61572 2.92004 8.362 2.92004 8.04833C2.92004 7.73467 3.58733 7.47961 4.41177 7.47961C6.58743 7.47961 11.048 7.54754 14.8719 7.65542C14.6814 7.79394 14.4896 7.93246 14.2951 8.07763C14.118 8.20949 13.9435 8.33935 13.7724 8.47055Z" fill="#747F8A"/>
<path d="M6.08669 6.31836C5.44005 6.31836 4.91461 6.11924 4.91461 5.87217C4.91461 5.62577 5.44005 5.42532 6.08669 5.42532C8.52606 5.42532 14.6102 5.5332 17.7002 5.68704C17.5031 5.81623 17.306 5.95009 17.1068 6.08461C13.8863 6.22379 8.37955 6.31836 6.08669 6.31836Z" fill="#747F8A"/>
<path d="M2.67165 15.2705C1.66607 15.2705 0.849609 14.9608 0.849609 14.5766C0.849609 14.195 1.66607 13.884 2.67165 13.884C3.9323 13.884 5.81893 13.9026 7.95264 13.9353C7.55174 14.4068 7.20345 14.8436 6.9051 15.2352C5.20626 15.2579 3.72119 15.2705 2.67165 15.2705Z" fill="#747F8A"/>
<path d="M8.07159 4.13851C8.07159 3.96336 8.37061 3.82151 8.74021 3.82151C10.6368 3.82151 16.4133 3.96336 16.4133 4.13851C16.4133 4.31232 10.6375 4.45483 8.74021 4.45483C8.37061 4.45483 8.07159 4.31232 8.07159 4.13851Z" fill="#747F8A"/>
<path d="M23.5977 14.0635C23.611 14.4092 23.609 14.7521 23.5917 15.0884C20.2313 15.2216 17.0447 15.4241 17.0447 15.6518C17.0447 15.8756 20.16 16.076 23.4818 16.2086C23.4232 16.5922 23.3479 16.9684 23.256 17.3374C19.9816 17.4712 16.9428 17.6683 16.9428 17.8901C16.9428 18.1039 19.7798 18.2963 22.9211 18.4302C22.7772 18.8311 22.6141 19.2207 22.4309 19.5936C19.7332 19.7235 17.5035 19.8966 17.5035 20.0857C17.5035 20.2622 19.4515 20.4254 21.9068 20.5512C21.769 20.7757 21.6251 20.9954 21.4746 21.2032C21.3148 21.4296 21.141 21.654 20.9572 21.8745C19.4222 21.991 18.3686 22.1235 18.3686 22.2654C18.3686 22.3873 19.1231 22.5011 20.2859 22.603C19.6512 23.231 18.9014 23.8177 18.0177 24.3298C18.0177 24.3298 16.9768 23.4335 16.1177 22.3866C15.3519 21.4529 13.7269 18.9916 13.3447 18.4408C12.9618 17.8901 12.71 17.7289 12.2625 17.8888C11.6625 18.1012 10.9652 18.2077 10.7508 18.2077C10.5364 18.2077 10.4185 18.1245 10.7781 17.982C11.1364 17.8375 12.5529 17.1689 13.2501 15.787C14.0333 14.2307 13.3447 12.0817 13.3447 12.0817C13.0816 13.2304 12.4836 13.6593 12.4836 13.6593C12.6767 12.5925 12.4663 11.6255 11.9395 10.9469L11.6458 12.2974C11.6458 12.2974 11.462 12.2881 11.0072 12.6704C10.553 13.0533 10.4278 13.6114 10.4278 13.6114C10.7854 13.7552 11.2156 13.3963 11.2156 13.3963C10.6662 15.452 9.87841 17.1256 9.30369 18.0106C8.72965 18.8957 8.25616 19.2293 7.68077 19.4631C7.1953 19.6575 7.03547 19.4291 7.03547 19.4291C6.61126 19.0628 6.29426 18.7272 5.96395 18.3283C5.96395 18.3283 5.93731 18.2817 6.02655 18.283C6.26296 18.2863 6.68384 17.8821 6.77575 17.7143C6.88097 17.5218 6.86964 17.3746 6.81703 17.3647C6.76509 17.356 6.67519 17.5085 6.21901 17.7962C5.7655 18.0832 5.55706 17.8841 5.40589 17.7243C5.28868 17.5971 5.40389 17.4399 5.47714 17.3413C5.5464 17.2534 7.94582 12.7789 14.295 8.07797C22.6154 1.91726 27.929 0.253714 28.2333 0.133842C28.4345 0.054594 28.7628 -0.0499592 28.8374 0.0266247C28.9199 0.113197 28.9606 0.182455 28.9492 0.283014C28.9386 0.382908 28.8853 0.434187 28.5004 0.604004C25.3065 2.01116 21.5778 4.35664 19.4594 5.72183C16.8542 6.99114 14.3669 8.80386 14.2764 8.84714C14.0759 8.97168 14.2237 9.15281 14.3449 9.0769C18.7442 6.15071 23.902 4.15752 29.6019 2.52461C29.8742 2.44736 30.0234 2.44736 30.0687 2.50729C30.12 2.57388 30.142 2.6498 30.15 2.73371C30.1573 2.83827 30.0707 2.89354 29.837 2.98478C23.7135 5.25966 19.2004 7.37273 16.2975 9.32596C16.2975 9.32596 15.9972 9.5071 15.9932 9.71687C15.9918 9.79679 16.1543 9.80611 16.1543 9.80611C17.6074 9.83208 19.55 9.91733 20.4744 9.97127C20.4744 9.97127 20.3425 10.4394 19.4574 10.8164C18.7742 11.108 18.1415 11.0614 17.5155 11.0668C17.3764 11.0641 17.2585 11.2046 17.3697 11.3544C17.4256 11.429 18.7575 13.5734 23.5977 14.0635Z" fill="#5C0632"/>
</svg>
