<svg width="20" height="20" viewBox="0 0 20 20" fill="none" xmlns="http://www.w3.org/2000/svg">
<g clip-path="url(#clip0_2125_675)">
<path d="M15.545 12.8943C15.0077 12.8943 14.5735 13.3286 14.5735 13.8658V16.9175C14.5735 17.4538 14.1382 17.8891 13.6019 17.8891H2.91468C2.37836 17.8891 1.94313 17.4538 1.94313 16.9175V4.28719C1.94313 3.75088 2.3784 3.31565 2.91468 3.31565H8.55946C9.09672 3.31565 9.531 2.88136 9.531 2.3441C9.531 1.80685 9.09672 1.37256 8.55946 1.37256H2.91468C1.30771 1.37248 0 2.68023 0 4.28719V16.9175C0 18.5245 1.30771 19.8322 2.91468 19.8322H13.6019C15.2088 19.8322 16.5165 18.5255 16.5165 16.9175V13.8659C16.5166 13.3286 16.0823 12.8943 15.545 12.8943Z" fill="#0064D2"/>
<path d="M18.9135 1.24913C18.2081 0.543792 17.2871 0.188173 16.3592 0.16876C15.3828 0.147393 14.4005 0.50102 13.6622 1.24038L7.08464 7.81789C6.12474 8.7817 5.59619 10.0603 5.59619 11.4185V13.5948C5.59619 14.132 6.03048 14.5663 6.56774 14.5663H8.74403C10.1023 14.5663 11.3809 14.0378 12.3456 13.0769L18.9144 6.50814C20.362 5.05961 20.362 2.69872 18.9135 1.24913ZM10.9729 11.7022C10.3773 12.2959 9.58449 12.6233 8.74411 12.6233H7.53932V11.4185C7.53932 10.5781 7.86674 9.78531 8.45939 9.19071L12.7955 4.85462L15.3079 7.36707L10.9729 11.7022ZM17.5397 5.13539L16.6818 5.99331L14.1693 3.48085L15.0272 2.62298C15.7209 1.92928 16.8479 1.93123 17.5396 2.62298C18.2314 3.31566 18.2314 4.44267 17.5397 5.13539Z" fill="#0064D2"/>
</g>
<defs>
<clipPath id="clip0_2125_675">
<rect width="20" height="20" fill="white"/>
</clipPath>
</defs>
</svg>
