<svg width="33" height="32" viewBox="0 0 33 32" fill="none" xmlns="http://www.w3.org/2000/svg">
<path d="M14.1667 27.8667C8.49999 26.8667 4.16666 21.9333 4.16666 16C4.16666 9.4 9.56666 4 16.1667 4C22.7667 4 28.1667 9.4 28.1667 16C28.1667 21.9333 23.8333 26.8667 18.1667 27.8667L17.5 27.3333H14.8333L14.1667 27.8667Z" fill="#0D1634"/>
<path d="M20.8333 19.3334L21.3667 16.0001H18.1667V13.6667C18.1667 12.7334 18.5 12.0001 19.9667 12.0001H21.5V8.93341C20.6333 8.80008 19.7 8.66675 18.8333 8.66675C16.1 8.66675 14.1667 10.3334 14.1667 13.3334V16.0001H11.1667V19.3334H14.1667V27.8001C14.8333 27.9334 15.5 28.0001 16.1667 28.0001C16.8333 28.0001 17.5 27.9334 18.1667 27.8001V19.3334H20.8333Z" fill="white"/>
</svg>
