<svg width="21" height="20" viewBox="0 0 21 20" fill="none" xmlns="http://www.w3.org/2000/svg">
<path fill-rule="evenodd" clip-rule="evenodd" d="M10 8C12.2091 8 14 6.20914 14 4C14 1.79086 12.2091 0 10 0C7.79086 0 6 1.79086 6 4C6 6.20914 7.79086 8 10 8ZM10 6C11.1046 6 12 5.10457 12 4C12 2.89543 11.1046 2 10 2C8.89543 2 8 2.89543 8 4C8 5.10457 8.89543 6 10 6Z" fill="#0064D2"/>
<path d="M2.35044 13.4349C3.70525 11.457 6.12081 10 10.0004 10C11.2267 10 12.3116 10.1448 13.2678 10.4107C13.7998 10.5587 14.1112 11.11 13.9632 11.6421C13.8153 12.1742 13.2639 12.4856 12.7319 12.3376C11.9719 12.1263 11.0697 12 10.0004 12C6.68006 12 4.92896 13.2096 4.00044 14.5651C3.25264 15.6568 2.97299 16.9395 2.95034 18H11.9998C12.5521 18 12.9998 18.4477 12.9998 19C12.9998 19.5523 12.5521 20 11.9998 20H2.00044C1.49612 20 1.07071 19.6245 1.00816 19.124C0.819451 17.6144 1.03719 15.352 2.35044 13.4349Z" fill="#0064D2"/>
<path d="M17 20C16.4477 20 16 19.5523 16 19V17H14C13.4477 17 13 16.5523 13 16C13 15.4477 13.4477 15 14 15H16V13C16 12.4477 16.4477 12 17 12C17.5523 12 18 12.4477 18 13V15H20C20.5523 15 21 15.4477 21 16C21 16.5523 20.5523 17 20 17H18V19C18 19.5523 17.5523 20 17 20Z" fill="#0064D2"/>
</svg>
