<svg width="20" height="21" viewBox="0 0 20 21" fill="none" xmlns="http://www.w3.org/2000/svg">
<path fill-rule="evenodd" clip-rule="evenodd" d="M2 14.5V16.5C2 18.71 3.791 20.5 6 20.5H16C18.21 20.5 20 18.71 20 16.5C20 13.171 20 7.83 20 4.5C20 2.291 18.21 0.5 16 0.5C13.141 0.5 8.86 0.5 6 0.5C3.791 0.5 2 2.291 2 4.5V6.5C2 7.052 2.448 7.5 3 7.5C3.552 7.5 4 7.052 4 6.5C4 6.5 4 5.563 4 4.5C4 3.396 4.896 2.5 6 2.5H16C17.105 2.5 18 3.396 18 4.5V16.5C18 17.605 17.105 18.5 16 18.5C13.141 18.5 8.86 18.5 6 18.5C4.896 18.5 4 17.605 4 16.5C4 15.438 4 14.5 4 14.5C4 13.949 3.552 13.5 3 13.5C2.448 13.5 2 13.949 2 14.5ZM9.586 9.5L8.293 8.20799C7.903 7.81699 7.903 7.184 8.293 6.793C8.684 6.403 9.317 6.403 9.707 6.793L12.707 9.793C13.098 10.184 13.098 10.817 12.707 11.208L9.707 14.208C9.317 14.598 8.684 14.598 8.293 14.208C7.903 13.817 7.903 13.184 8.293 12.793L9.586 11.5H1C0.448 11.5 0 11.052 0 10.5C0 9.949 0.448 9.5 1 9.5H9.586Z" fill="#0064D2"/>
</svg>
