<svg width="20" height="20" viewBox="0 0 20 20" fill="none" xmlns="http://www.w3.org/2000/svg">
<path fill-rule="evenodd" clip-rule="evenodd" d="M10 18C14.4183 18 18 14.4183 18 10C18 5.58172 14.4183 2 10 2C5.58172 2 2 5.58172 2 10C2 14.4183 5.58172 18 10 18ZM10 20C15.5228 20 20 15.5228 20 10C20 4.47715 15.5228 0 10 0C4.47715 0 0 4.47715 0 10C0 15.5228 4.47715 20 10 20Z" fill="#0064D2"/>
<path d="M11 15C11 15.5523 10.5523 16 10 16C9.44772 16 9 15.5523 9 15C9 14.4477 9.44772 14 10 14C10.5523 14 11 14.4477 11 15Z" fill="#0064D2"/>
<path fill-rule="evenodd" clip-rule="evenodd" d="M7.99998 8.00699C7.99999 8.0023 8.00002 8.0007 7.99998 8.00699V8.00699ZM11.0049 11.6678C11.4381 11.3466 11.9683 11.1339 12.4472 10.8944C14.0769 10.0796 14.2805 8.17932 13.8237 6.80877C13.3418 5.36297 12.016 4 10 4C9.07502 4 8.3148 4.23412 7.71093 4.6367C7.11332 5.03511 6.72739 5.55916 6.48057 6.05279C6.17713 6.65967 6.02832 7.32521 6 8C6 8.55228 6.44772 9 7 9C7.54995 9 7.99622 8.55606 7.99998 8.00699C8.00988 7.64471 8.10814 7.26979 8.26943 6.94721C8.60782 6.27043 9.26588 6 10 6C10.984 6 11.6582 6.63703 11.9263 7.44123C12.2195 8.32068 11.9231 8.9204 11.5528 9.10557C11.1525 9.30573 10.7495 9.50218 10.3581 9.71959C10.0635 9.88328 9.77211 10.0637 9.54289 10.2929C8.95415 10.8816 9 11.5811 9 12C9 12.5523 9.44772 13 10 13C10.5523 13 11 12.5523 11 12C11 11.8197 11.0017 11.7236 11.0049 11.6678Z" fill="#0064D2"/>
</svg>
