<svg width="32" height="22" viewBox="0 0 32 22" fill="none" xmlns="http://www.w3.org/2000/svg">
<path d="M21.4325 7.06519C21.4325 7.06519 21.0567 7.26544 21.0367 7.36556C20.3959 10.7298 18.4889 11.6527 15.6253 11.6527L14.1635 11.6296C13.803 11.6296 13.3103 12.1315 13.2502 12.4719L12.4946 16.8714L12.7016 17.2179L12.5014 18.5796C12.4613 18.7798 12.6015 18.9801 12.8218 19.0001C12.8418 19.0001 12.8619 19.0001 12.8819 19.0001H15.4651C15.7655 19.0001 16.0258 18.7798 16.0859 18.4794L16.1059 18.3392C16.1059 18.3392 16.5858 15.2597 16.5865 15.2554C16.6429 14.8938 16.8425 14.5746 17.2473 14.5746H17.6278C20.1309 14.5746 22.0934 13.5533 22.6741 10.6096C22.9144 9.38806 22.7942 8.34675 22.1534 7.62587C21.9532 7.38556 21.7129 7.20534 21.4325 7.06519Z" fill="#009BD9"/>
<path d="M20.8034 6.41451C20.1725 6.21108 19.4873 6.18433 18.8293 6.18433H14.9244C14.624 6.18433 14.0987 6.57948 14.0386 6.87986L13.1536 12.3118L13.4626 12.472C13.5226 12.1315 13.823 11.8712 14.1634 11.8712H15.6253C18.4888 11.8712 20.719 10.7138 21.3798 7.34955C21.3999 7.24942 21.412 7.17433 21.4325 7.0652C21.4325 7.0652 21.2228 6.59333 21.0517 6.50611C20.9721 6.47258 20.8888 6.44205 20.8034 6.41451Z" fill="#192A67"/>
<path d="M14.3237 7.08509C14.3637 6.78472 14.624 6.56444 14.9444 6.56444H18.8293C19.2898 6.56444 19.7304 6.6045 20.1109 6.66456C20.3712 6.70462 20.6315 6.76469 20.8918 6.84478C21.0921 6.90484 21.2723 6.98497 21.4325 7.06506C21.6328 5.8235 21.4325 4.98247 20.7517 4.20147C20.0308 3.36044 18.6891 3 16.9669 3H12.0008C11.6603 3 11.3599 3.26031 11.2999 3.60075L9.21726 16.7372C9.17719 16.9775 9.33741 17.1977 9.57769 17.2177C9.59773 17.2177 9.61776 17.2177 9.63776 17.2177H12.7016L13.4826 12.3317L14.3237 7.08509Z" fill="#0A3B82"/>
<rect width="32" height="22" rx="3" fill="#009BD9" fill-opacity="0.13"/>
</svg>
