<svg width="20" height="20" viewBox="0 0 20 20" fill="none" xmlns="http://www.w3.org/2000/svg">
<path d="M17.8571 5.35714V2.14286H14.6428C13.2274 2.14286 13.2249 0 14.6428 0H18.2429C18.7087 0.000521798 19.1553 0.185813 19.4848 0.515223C19.8142 0.844633 19.9995 1.29126 20 1.75711V5.35714C20 6.77286 17.8571 6.77464 17.8571 5.35714Z" fill="#0064D2"/>
<path d="M0 5.35714V1.75711C0.000521798 1.29126 0.185813 0.844633 0.515223 0.515223C0.844633 0.185813 1.29126 0.000521798 1.75711 0H5.35714C6.77257 0 6.77509 2.14286 5.35714 2.14286H2.14286V5.35714C2.14286 6.77286 0 6.77464 0 5.35714Z" fill="#0064D2"/>
<path d="M18.2429 19.9999H14.6428C13.2274 19.9999 13.2249 17.8571 14.6428 17.8571H17.8571V14.6428C17.8571 13.2271 20 13.2253 20 14.6428V18.2428C19.9995 18.7086 19.8142 19.1553 19.4848 19.4847C19.1553 19.8141 18.7087 19.9994 18.2429 19.9999Z" fill="#0064D2"/>
<path d="M5.35714 19.9999H1.75711C1.29126 19.9994 0.844633 19.8141 0.515223 19.4847C0.185813 19.1553 0.000521798 18.7086 0 18.2428V14.6428C0 13.2271 2.14286 13.2253 2.14286 14.6428V17.8571H5.35714C6.77257 17.8571 6.77509 19.9999 5.35714 19.9999Z" fill="#0064D2"/>
<path d="M18.9284 11.0713H1.07131C-0.344122 11.0713 -0.346644 8.92847 1.07131 8.92847H18.9284C20.3439 8.92847 20.3464 11.0713 18.9284 11.0713Z" fill="#0064D2"/>
</svg>
