<svg width="20" height="21" viewBox="0 0 20 21" fill="none" xmlns="http://www.w3.org/2000/svg">
<path fill-rule="evenodd" clip-rule="evenodd" d="M18.723 14.6339C19.5514 13.199 19.0598 11.3642 17.6249 10.5358L17.5628 10.4999L17.6249 10.4641C19.0597 9.63568 19.5514 7.80091 18.7229 6.36603L17.7229 4.63398C16.8945 3.1991 15.0597 2.70747 13.6249 3.5359L13.5627 3.5718V3.5C13.5627 1.84315 12.2195 0.5 10.5627 0.5L8.56268 0.5C6.90583 0.5 5.56268 1.84315 5.56268 3.5L5.56268 3.57168L5.50056 3.53582C4.06568 2.70739 2.23091 3.19902 1.40248 4.63389L0.402483 6.36594C-0.425944 7.80082 0.0656799 9.63559 1.50056 10.464L1.56277 10.4999L1.5005 10.5359C0.0656239 11.3643 -0.426002 13.1991 0.402424 14.634L1.40242 16.366C2.23085 17.8009 4.06562 18.2925 5.5005 17.4641L5.56268 17.4282V17.5C5.56268 19.1569 6.90582 20.5 8.56268 20.5H10.5627C12.2195 20.5 13.5627 19.1569 13.5627 17.5V17.4281L13.6249 17.464C15.0598 18.2925 16.8946 17.8008 17.723 16.3659L18.723 14.6339ZM14.5627 5.30384C13.2294 6.07365 11.5627 5.1114 11.5627 3.57179V3.5C11.5627 2.94772 11.115 2.5 10.5627 2.5L8.56268 2.5C8.01042 2.5 7.56271 2.94768 7.56268 3.49994L7.56268 3.57169C7.56267 5.11124 5.8961 6.07349 4.56277 5.30378L4.50056 5.26787C4.02227 4.99173 3.41068 5.1556 3.13453 5.63389L2.13453 7.36595C1.85839 7.84424 2.02227 8.45583 2.50056 8.73197L2.56269 8.76784C3.89611 9.53759 3.89615 11.4622 2.56277 12.232L2.5005 12.2679C2.02221 12.5441 1.85833 13.1557 2.13447 13.634L3.13448 15.366C3.41062 15.8443 4.02221 16.0082 4.5005 15.7321L4.56269 15.6961C5.89602 14.9264 7.56267 15.8886 7.56268 17.4282V17.5C7.56268 18.0523 8.01039 18.5 8.56268 18.5H10.5627C11.115 18.5 11.5627 18.0523 11.5627 17.5V17.4281C11.5627 15.8884 13.2294 14.9262 14.5628 15.6961L14.6249 15.732C15.1032 16.0081 15.7148 15.8442 15.9909 15.3659L16.9909 13.6339C17.2671 13.1556 17.1032 12.544 16.6249 12.2679L16.5627 12.232C15.2295 11.4621 15.2295 9.53768 16.5628 8.7679L16.6249 8.73205C17.1032 8.4559 17.267 7.84431 16.9909 7.36603L15.9909 5.63398C15.7147 5.15568 15.1032 4.99181 14.6249 5.26795L14.5627 5.30384Z" fill="#0064D2"/>
<path fill-rule="evenodd" clip-rule="evenodd" d="M9.5625 12.4999C10.6671 12.4999 11.5625 11.6045 11.5625 10.4999C11.5625 9.39537 10.6671 8.49994 9.5625 8.49994C8.45793 8.49994 7.5625 9.39537 7.5625 10.4999C7.5625 11.6045 8.45793 12.4999 9.5625 12.4999ZM9.5625 14.4999C11.7716 14.4999 13.5625 12.7091 13.5625 10.4999C13.5625 8.2908 11.7716 6.49994 9.5625 6.49994C7.35336 6.49994 5.5625 8.2908 5.5625 10.4999C5.5625 12.7091 7.35336 14.4999 9.5625 14.4999Z" fill="#0064D2"/>
</svg>
