<svg width="217" height="175" viewBox="0 0 217 175" fill="none" xmlns="http://www.w3.org/2000/svg">
<path d="M128.154 115.518C154.061 104.591 166.213 74.7148 155.296 48.7861C144.379 22.8574 114.527 10.6954 88.6196 21.6214C62.7123 32.5475 50.5603 62.4242 61.4773 88.3529C72.3944 114.282 102.246 126.444 128.154 115.518Z" fill="#FFC727"/>
<path d="M79.5588 77.6992C82.5644 80.3259 85.2948 83.1857 88.0252 86.003C90.7556 88.8204 93.359 91.7861 95.9201 94.773H91.4118C98.1002 84.6473 105.318 74.9029 112.895 65.4551C116.663 60.71 120.642 56.1133 124.664 51.5588C128.685 47.0044 132.918 42.6194 137.363 38.4463C134.59 43.9328 131.479 49.1651 128.262 54.3338C125.044 59.5026 121.658 64.5231 118.144 69.4588C111.117 79.3515 103.752 88.9687 95.8355 98.1835L93.2956 101.149L91.3483 98.1623C89.2317 94.9001 87.1151 91.5531 85.1043 88.1637C83.0935 84.7744 81.1463 81.3216 79.5588 77.6992Z" fill="white"/>
<path d="M216.101 170.036C216.203 170.775 216.084 171.528 215.758 172.2C215.432 172.871 214.915 173.431 214.271 173.808C213.627 174.185 212.886 174.362 212.142 174.317C211.397 174.272 210.683 174.007 210.089 173.555C209.495 173.104 209.049 172.486 208.806 171.78C208.563 171.074 208.536 170.312 208.726 169.59C208.916 168.869 209.317 168.22 209.876 167.726C210.435 167.232 211.128 166.915 211.867 166.816C212.357 166.747 212.855 166.776 213.333 166.901C213.811 167.026 214.26 167.245 214.654 167.544C215.047 167.843 215.378 168.218 215.626 168.645C215.874 169.073 216.036 169.546 216.101 170.036Z" fill="#FFC727"/>
<path d="M146.231 119.237C146.284 119.491 146.284 119.753 146.231 120.007C146.178 120.261 146.073 120.501 145.923 120.713C145.773 120.924 145.58 121.103 145.358 121.236C145.136 121.37 144.888 121.457 144.631 121.49C144.374 121.524 144.113 121.504 143.864 121.432C143.615 121.36 143.383 121.237 143.184 121.071C142.984 120.905 142.821 120.7 142.704 120.468C142.588 120.236 142.52 119.983 142.506 119.724C142.48 119.249 142.634 118.782 142.938 118.416C143.242 118.05 143.672 117.813 144.143 117.751C144.614 117.69 145.091 117.808 145.478 118.084C145.866 118.359 146.135 118.771 146.231 119.237Z" fill="white"/>
<path d="M101.444 2.30569C101.49 2.66999 101.428 3.03984 101.265 3.36881C101.102 3.69777 100.846 3.97124 100.528 4.15484C100.21 4.33844 99.8451 4.424 99.4789 4.40082C99.1128 4.37765 98.7616 4.24678 98.4694 4.02458C98.1773 3.80238 97.9573 3.49875 97.8369 3.15185C97.7166 2.80495 97.7013 2.43021 97.793 2.07464C97.8846 1.71908 98.0792 1.39855 98.3522 1.15324C98.6252 0.907928 98.9646 0.748794 99.3277 0.695798C99.5726 0.660047 99.8222 0.673469 100.062 0.735361C100.302 0.797253 100.526 0.906376 100.724 1.05627C100.921 1.20616 101.086 1.39382 101.21 1.60835C101.333 1.82288 101.413 2.05994 101.444 2.30569Z" fill="white"/>
<path d="M208.968 82.229C209.019 82.5987 208.959 82.9753 208.796 83.311C208.634 83.6468 208.375 83.9266 208.053 84.115C207.731 84.3035 207.36 84.392 206.988 84.3695C206.616 84.347 206.259 84.2145 205.962 83.9886C205.665 83.7628 205.442 83.4539 205.32 83.101C205.199 82.7481 205.185 82.3671 205.28 82.0062C205.376 81.6454 205.576 81.3209 205.855 81.074C206.135 80.827 206.482 80.6687 206.851 80.6191C207.345 80.5527 207.845 80.6849 208.242 80.9866C208.638 81.2884 208.899 81.7351 208.968 82.229Z" fill="white"/>
<path d="M16.3361 168.489C16.3621 168.964 16.2079 169.431 15.9044 169.797C15.6008 170.163 15.1704 170.4 14.6993 170.462C14.2282 170.523 13.7512 170.405 13.364 170.129C12.9767 169.854 12.7077 169.442 12.6109 168.977C12.5503 168.483 12.6845 167.986 12.985 167.59C13.2855 167.194 13.7284 166.932 14.2195 166.858C14.4656 166.826 14.7158 166.842 14.9555 166.906C15.1953 166.971 15.42 167.082 15.6167 167.233C15.8134 167.385 15.9782 167.574 16.1017 167.789C16.2252 168.005 16.3048 168.243 16.3361 168.489Z" fill="#FFC727"/>
<path d="M8.14501 92.4849C8.23816 93.2187 8.11238 93.9636 7.7835 94.626C7.45462 95.2884 6.93732 95.8386 6.29672 96.2074C5.65612 96.5763 4.92084 96.7473 4.18337 96.6989C3.4459 96.6505 2.7392 96.3849 2.15221 95.9355C1.56523 95.4861 1.12417 94.8729 0.884537 94.1732C0.644903 93.4735 0.617398 92.7185 0.805491 92.0032C0.993584 91.2879 1.38887 90.6443 1.94161 90.1533C2.49434 89.6623 3.17983 89.3458 3.91182 89.2438C4.40284 89.1754 4.90255 89.2052 5.38198 89.3315C5.86142 89.4578 6.31104 89.678 6.70479 89.9795C7.09855 90.281 7.4286 90.6576 7.67582 91.0877C7.92305 91.5178 8.08253 91.9927 8.14501 92.4849Z" fill="#FFC727"/>
<path d="M47.5347 28.8259L52.424 31.5797C52.2154 30.0956 52.41 28.5827 52.9873 27.1998C53.5646 25.817 54.5032 24.6152 55.7047 23.7207C59.9379 19.8229 65.0601 21.9624 67.5153 16.8361L62.372 13.5103C61.7985 14.9247 60.9382 16.2048 59.8452 17.2695C58.7522 18.3341 57.4505 19.1603 56.0222 19.6958C52.3817 20.7762 48.4871 22.3226 47.5347 28.8259Z" fill="#FFC727"/>
<path d="M78.2675 130.91L79.0295 125.339C77.735 126.078 76.2657 126.453 74.776 126.427C73.2862 126.401 71.831 125.974 70.5631 125.191C65.3563 122.585 65.5044 117.12 59.8108 116.718L58.6255 122.755C60.1607 122.77 61.6757 123.108 63.0721 123.747C64.4686 124.385 65.7155 125.31 66.7321 126.462C68.9756 129.343 71.9389 132.478 78.2675 130.91Z" fill="#FFC727"/>
<path d="M32.5281 60.9829L26.0513 62.8259C26.0513 62.8259 27.6599 71.2992 34.3272 69.9223C34.3272 69.9223 30.221 67.4015 32.5281 60.9829Z" fill="white"/>
<path d="M40.592 76.1096L43.4283 70.1146C43.4283 70.1146 39.9571 66.0263 34.3269 69.924C34.3269 69.924 40.7402 70.4324 40.592 76.1096Z" fill="white"/>
<path d="M166.339 60.4546C166.241 59.7154 166.364 58.9637 166.693 58.2946C167.022 57.6254 167.541 57.0688 168.186 56.6951C168.831 56.3215 169.572 56.1475 170.315 56.1952C171.059 56.243 171.771 56.5103 172.363 56.9634C172.955 57.4164 173.399 58.0349 173.64 58.7406C173.88 59.4463 173.906 60.2076 173.715 60.9281C173.523 61.6487 173.122 62.2963 172.563 62.7889C172.004 63.2815 171.311 63.597 170.572 63.6957C170.082 63.7612 169.583 63.7294 169.105 63.6019C168.626 63.4745 168.178 63.254 167.785 62.953C167.392 62.652 167.062 62.2764 166.814 61.8477C166.566 61.4191 166.404 60.9457 166.339 60.4546Z" fill="#FFC727"/>
<path d="M185.96 105.343L185.198 110.914C186.492 110.174 187.961 109.796 189.452 109.823C190.942 109.849 192.397 110.277 193.664 111.063C198.892 113.668 198.744 119.133 204.417 119.536L205.623 113.499C204.088 113.483 202.573 113.145 201.177 112.507C199.78 111.868 198.533 110.943 197.517 109.792C195.209 106.911 192.289 103.881 185.96 105.343Z" fill="white"/>
<path d="M178.383 30.9466L184.309 34.1664C184.309 34.1664 189.093 26.9429 183.336 23.2993C183.272 23.2993 184.521 27.9809 178.383 30.9466Z" fill="#FFC727"/>
<path d="M183.272 14.4868L176.922 16.817C176.922 16.817 176.562 22.134 183.272 23.2991C183.272 23.2991 179.039 18.4481 183.272 14.4868Z" fill="#FFC727"/>
</svg>
