<svg width="14" height="15" viewBox="0 0 14 15" fill="none" xmlns="http://www.w3.org/2000/svg">
<g clip-path="url(#clip0_703_13142)">
<path d="M14 7.49976C14 8.19228 12.7593 8.68017 12.5564 9.30507C12.346 9.95275 13.0557 11.0754 12.6632 11.6143C12.2671 12.1588 10.9775 11.8288 10.433 12.2251C9.89392 12.6173 9.8116 13.9477 9.16412 14.1573C8.53923 14.3602 7.6933 13.3389 6.99998 13.3389C6.30666 13.3389 5.46151 14.3602 4.83584 14.1573C4.18816 13.9469 4.10584 12.6166 3.56674 12.2251C3.02242 11.829 1.73284 12.159 1.33652 11.6145C0.944274 11.0754 1.65379 9.95275 1.44355 9.30527C1.24071 8.68037 0 8.19248 0 7.49997C0 6.80745 1.24071 6.31956 1.4436 5.69466C1.65383 5.04715 0.944315 3.9245 1.33656 3.38544C1.73288 2.84092 3.02246 3.17096 3.56698 2.77484C4.10589 2.3826 4.1882 1.05202 4.83588 0.842585C5.46078 0.639698 6.3067 1.66108 7.00002 1.66108C7.6933 1.66108 8.5385 0.639698 9.16416 0.842585C9.81168 1.05282 9.89416 2.38336 10.4331 2.77484C10.9776 3.17116 12.2672 2.84112 12.6635 3.38544C13.0557 3.92454 12.346 5.04719 12.5565 5.69466C12.7593 6.31932 14 6.80721 14 7.49976Z" fill="#B08300"/>
<path d="M6.38866 9.87947C6.18368 9.87976 5.98701 9.79833 5.84221 9.6532L4.11902 7.93002C3.81713 7.62821 3.81705 7.13883 4.11882 6.83694C4.42062 6.53505 4.91001 6.53497 5.21189 6.83674L6.38862 8.0133L8.78946 5.61267C9.09131 5.31078 9.58073 5.31074 9.88262 5.61259C10.1845 5.91444 10.1845 6.40386 9.8827 6.70575L6.93524 9.6532C6.79044 9.79837 6.59369 9.8798 6.38866 9.87947Z" fill="white"/>
</g>
<defs>
<clipPath id="clip0_703_13142">
<rect width="14" height="14" fill="white" transform="translate(0 0.5)"/>
</clipPath>
</defs>
</svg>
