<svg width="24" height="24" viewBox="0 0 24 24" fill="none" xmlns="http://www.w3.org/2000/svg">
<path d="M24 11.9996C24 13.1868 21.8731 14.0232 21.5253 15.0945C21.1645 16.2048 22.3812 18.1293 21.7084 19.0531C21.0294 19.9866 18.8186 19.4208 17.8852 20.1002C16.961 20.7726 16.8199 23.0533 15.7099 23.4127C14.6387 23.7605 13.1885 22.0095 12 22.0095C10.8114 22.0095 9.36258 23.7605 8.29001 23.4127C7.17971 23.0519 7.03859 20.7713 6.11441 20.1002C5.18129 19.4212 2.97058 19.9869 2.29117 19.0535C1.61876 18.1293 2.83507 16.2048 2.47466 15.0948C2.12693 14.0235 0 13.1872 0 12C0 10.8128 2.12693 9.97645 2.47473 8.90519C2.83514 7.79516 1.61883 5.87063 2.29124 4.94652C2.97065 4.01306 5.18136 4.57884 6.11482 3.89977C7.03866 3.22736 7.17978 0.946365 8.29008 0.587341C9.36134 0.239535 10.8115 1.99048 12 1.99048C13.1885 1.99048 14.6374 0.239535 15.71 0.587341C16.82 0.94775 16.9614 3.22867 17.8853 3.89977C18.8187 4.57918 21.0294 4.0134 21.7088 4.94652C22.3813 5.8707 21.1646 7.79523 21.5253 8.90519C21.8731 9.97603 24 10.8124 24 11.9996Z" fill="#898E8E"/>
<path d="M10.952 16.0795C10.6006 16.08 10.2634 15.9404 10.0152 15.6916L7.06115 12.7376C6.54363 12.2202 6.54349 11.3813 7.0608 10.8638C7.57818 10.3462 8.41713 10.3461 8.93465 10.8634L10.9519 12.8804L15.0676 8.76501C15.5851 8.24749 16.4241 8.24743 16.9416 8.76488C17.4591 9.28233 17.4592 10.1213 16.9417 10.6389L11.889 15.6916C11.6407 15.9405 11.3034 16.0801 10.952 16.0795Z" fill="white"/>
</svg>
