<svg width="21" height="16" viewBox="0 0 21 16" fill="none" xmlns="http://www.w3.org/2000/svg">
<path d="M20.5 4.54V2C20.5 0.9 19.6 0 18.5 0H2.5C1.4 0 0.51 0.89 0.51 2V4.54C0.51 5.23 0.84 5.91 1.45 6.23C2.08 6.58 2.5 7.24 2.5 8C2.5 8.76 2.07 9.43 1.44 9.76C0.84 10.09 0.5 10.77 0.5 11.46V14C0.5 15.1 1.4 16 2.5 16H18.5C19.6 16 20.5 15.1 20.5 14V11.46C20.5 10.77 20.16 10.09 19.56 9.76C18.93 9.42 18.5 8.76 18.5 8C18.5 7.24 18.93 6.58 19.56 6.24C20.16 5.91 20.5 5.23 20.5 4.54ZM11.5 13.5H9.5V11.5H11.5V13.5ZM11.5 9H9.5V7H11.5V9ZM11.5 4.5H9.5V2.5H11.5V4.5Z" fill="#0D1634"/>
</svg>
