<svg width="22" height="22" viewBox="0 0 22 22" fill="none" xmlns="http://www.w3.org/2000/svg">
<path d="M7.93404 21C7.59566 21 7.25728 20.9342 6.93974 20.8025C6.27715 20.5283 5.75208 19.9857 5.50038 19.3139L4.88112 17.6637C4.78611 17.412 4.58692 17.2128 4.33522 17.1186L2.68582 16.4994C2.01406 16.2477 1.47149 15.7226 1.19729 15.06C0.922247 14.3974 0.935583 13.6432 1.23229 12.9906L1.96156 11.3862C2.07324 11.1411 2.07324 10.8603 1.96156 10.6152L1.23229 9.00919C0.936416 8.3566 0.923081 7.60233 1.19729 6.93974C1.47149 6.27715 2.01406 5.75208 2.68582 5.50037L4.33605 4.88112C4.58775 4.78611 4.78694 4.58692 4.88112 4.33522L5.50038 2.68582C5.75208 2.01406 6.27715 1.47149 6.93974 1.19729C7.60233 0.922247 8.3566 0.935583 9.00919 1.23229L10.6136 1.96156C10.8594 2.07407 11.1403 2.07324 11.3845 1.96156H11.3853L12.9897 1.23229C13.6423 0.937249 14.3966 0.922247 15.0592 1.19729C15.7218 1.47149 16.2468 2.01406 16.4986 2.68582L17.1178 4.33605C17.2128 4.58775 17.412 4.78694 17.6637 4.88112L19.3131 5.50037C19.9849 5.75208 20.5274 6.27715 20.8016 6.93974C21.0767 7.60233 21.0633 8.3566 20.7666 9.00919L20.0374 10.6136C19.9257 10.8586 19.9257 11.1395 20.0374 11.3845L20.7666 12.9897C21.0625 13.6423 21.0758 14.3966 20.8016 15.0592C20.5274 15.7218 19.9849 16.2468 19.3131 16.4985L17.6629 17.1178C17.4112 17.2128 17.212 17.412 17.1178 17.6637L16.4986 19.3131C16.2468 19.9849 15.7218 20.5274 15.0592 20.8016C14.3966 21.0767 13.6415 21.0625 12.9897 20.7666L11.3853 20.0374C11.1395 19.9249 10.8586 19.9257 10.6144 20.0374L9.01002 20.7675C8.66998 20.9217 8.30243 21 7.93404 21ZM7.93488 2.66499C7.81403 2.66499 7.69318 2.68916 7.57733 2.73666C7.33563 2.83668 7.15227 3.0267 7.06059 3.2709L6.44217 4.9203C6.1788 5.62289 5.62373 6.17797 4.92113 6.44134L3.27174 7.05976C3.02754 7.15143 2.83751 7.33563 2.7375 7.57649C2.63748 7.81819 2.64165 8.0824 2.75 8.31993L3.47926 9.92431C3.79014 10.6069 3.79014 11.392 3.47926 12.0754L2.75083 13.679C2.64248 13.9165 2.63832 14.1807 2.73833 14.4216C2.83834 14.6633 3.02837 14.8467 3.27257 14.9383L4.92196 15.5576C5.62456 15.821 6.17964 16.3752 6.44301 17.0786L7.06142 18.728C7.1531 18.9722 7.33729 19.1622 7.57816 19.2623C7.81986 19.3631 8.08323 19.3573 8.32076 19.2498L9.92515 18.5205C10.6077 18.2096 11.3912 18.2088 12.0763 18.5205L13.6798 19.2489C13.9182 19.3564 14.1816 19.3623 14.4224 19.2614C14.6641 19.1614 14.8475 18.9714 14.9392 18.7272L15.5584 17.0778C15.8218 16.3752 16.376 15.8201 17.0795 15.5568L18.7289 14.9383C18.9731 14.8467 19.1631 14.6625 19.2631 14.4216C19.3631 14.1799 19.3589 13.9165 19.2506 13.679L18.5213 12.0746C18.2105 11.392 18.2105 10.6069 18.5213 9.92348L19.2498 8.31993C19.3581 8.0824 19.3623 7.81819 19.2623 7.57733C19.1622 7.33563 18.9722 7.15227 18.728 7.06059L17.0786 6.44134C16.376 6.17797 15.821 5.62372 15.5576 4.9203L14.9392 3.2709C14.8475 3.0267 14.6633 2.83668 14.4224 2.73666C14.1816 2.63665 13.9182 2.64082 13.6798 2.74916L12.0754 3.47843C11.3912 3.78931 10.6077 3.78847 9.92432 3.47843L8.32076 2.74916C8.19658 2.69332 8.06573 2.66499 7.93488 2.66499Z" fill="#0064D2" stroke="#0064D2" stroke-width="0.3"/>
<path d="M8.1875 10.0625C7.15344 10.0625 6.3125 9.22157 6.3125 8.1875C6.3125 7.15344 7.15344 6.3125 8.1875 6.3125C9.22157 6.3125 10.0625 7.15344 10.0625 8.1875C10.0625 9.22157 9.22157 10.0625 8.1875 10.0625Z" fill="#0064D2"/>
<path d="M13.8125 15.6875C12.7784 15.6875 11.9375 14.8466 11.9375 13.8125C11.9375 12.7784 12.7784 11.9375 13.8125 11.9375C14.8466 11.9375 15.6875 12.7784 15.6875 13.8125C15.6875 14.8466 14.8466 15.6875 13.8125 15.6875Z" fill="#0064D2"/>
<path d="M8.18652 15.6876C7.99152 15.6876 7.7937 15.6266 7.62495 15.5001C7.21058 15.1898 7.12714 14.602 7.43745 14.1876L13.0625 6.68758C13.3737 6.27414 13.9606 6.18883 14.375 6.50008C14.7893 6.81039 14.8728 7.39821 14.5625 7.81258L8.93746 15.3126C8.75371 15.5582 8.47152 15.6876 8.18652 15.6876Z" fill="#0064D2"/>
</svg>
